<?xml version="1.0" encoding="UTF-8"?>
<!DOCTYPE svg PUBLIC "-//W3C//DTD SVG 1.1//EN" "http://www.w3.org/Graphics/SVG/1.1/DTD/svg11.dtd">
<svg version="1.2" width="100.01mm" height="72.74mm" viewBox="5499 11213 10001 7274" preserveAspectRatio="xMidYMid" fill-rule="evenodd" stroke-width="28.222" stroke-linejoin="round" xmlns="http://www.w3.org/2000/svg" xmlns:ooo="http://xml.openoffice.org/svg/export" xmlns:xlink="http://www.w3.org/1999/xlink" xmlns:presentation="http://sun.com/xmlns/staroffice/presentation" xmlns:smil="http://www.w3.org/2001/SMIL20/" xmlns:anim="urn:oasis:names:tc:opendocument:xmlns:animation:1.0" xml:space="preserve">
 <defs class="EmbeddedBulletChars">
  <g id="bullet-char-template-57356" transform="scale(0.00048828125,-0.00048828125)">
   <path d="M 580,1141 L 1163,571 580,0 -4,571 580,1141 Z"/>
  </g>
  <g id="bullet-char-template-57354" transform="scale(0.00048828125,-0.00048828125)">
   <path d="M 8,1128 L 1137,1128 1137,0 8,0 8,1128 Z"/>
  </g>
  <g id="bullet-char-template-10146" transform="scale(0.00048828125,-0.00048828125)">
   <path d="M 174,0 L 602,739 174,1481 1456,739 174,0 Z M 1358,739 L 309,1346 659,739 1358,739 Z"/>
  </g>
  <g id="bullet-char-template-10132" transform="scale(0.00048828125,-0.00048828125)">
   <path d="M 2015,739 L 1276,0 717,0 1260,543 174,543 174,936 1260,936 717,1481 1274,1481 2015,739 Z"/>
  </g>
  <g id="bullet-char-template-10007" transform="scale(0.00048828125,-0.00048828125)">
   <path d="M 0,-2 C -7,14 -16,27 -25,37 L 356,567 C 262,823 215,952 215,954 215,979 228,992 255,992 264,992 276,990 289,987 310,991 331,999 354,1012 L 381,999 492,748 772,1049 836,1024 860,1049 C 881,1039 901,1025 922,1006 886,937 835,863 770,784 769,783 710,716 594,584 L 774,223 C 774,196 753,168 711,139 L 727,119 C 717,90 699,76 672,76 641,76 570,178 457,381 L 164,-76 C 142,-110 111,-127 72,-127 30,-127 9,-110 8,-76 1,-67 -2,-52 -2,-32 -2,-23 -1,-13 0,-2 Z"/>
  </g>
  <g id="bullet-char-template-10004" transform="scale(0.00048828125,-0.00048828125)">
   <path d="M 285,-33 C 182,-33 111,30 74,156 52,228 41,333 41,471 41,549 55,616 82,672 116,743 169,778 240,778 293,778 328,747 346,684 L 369,508 C 377,444 397,411 428,410 L 1163,1116 C 1174,1127 1196,1133 1229,1133 1271,1133 1292,1118 1292,1087 L 1292,965 C 1292,929 1282,901 1262,881 L 442,47 C 390,-6 338,-33 285,-33 Z"/>
  </g>
  <g id="bullet-char-template-9679" transform="scale(0.00048828125,-0.00048828125)">
   <path d="M 813,0 C 632,0 489,54 383,161 276,268 223,411 223,592 223,773 276,916 383,1023 489,1130 632,1184 813,1184 992,1184 1136,1130 1245,1023 1353,916 1407,772 1407,592 1407,412 1353,268 1245,161 1136,54 992,0 813,0 Z"/>
  </g>
  <g id="bullet-char-template-8226" transform="scale(0.00048828125,-0.00048828125)">
   <path d="M 346,457 C 273,457 209,483 155,535 101,586 74,649 74,723 74,796 101,859 155,911 209,963 273,989 346,989 419,989 480,963 531,910 582,859 608,796 608,723 608,648 583,586 532,535 482,483 420,457 346,457 Z"/>
  </g>
  <g id="bullet-char-template-8211" transform="scale(0.00048828125,-0.00048828125)">
   <path d="M -4,459 L 1135,459 1135,606 -4,606 -4,459 Z"/>
  </g>
  <g id="bullet-char-template-61548" transform="scale(0.00048828125,-0.00048828125)">
   <path d="M 173,740 C 173,903 231,1043 346,1159 462,1274 601,1332 765,1332 928,1332 1067,1274 1183,1159 1299,1043 1357,903 1357,740 1357,577 1299,437 1183,322 1067,206 928,148 765,148 601,148 462,206 346,322 231,437 173,577 173,740 Z"/>
  </g>
 </defs>
 <g class="Page">
  <g class="Graphic">
   <g id="id3">
    <rect class="BoundingBox" stroke="none" fill="none" x="5499" y="11213" width="10001" height="7274"/>
    <line fill="rgb(15,15,15)" stroke="rgb(15,15,15)" x1="15499" y1="11213" x2="5499" y2="11213"/>
    <line fill="rgb(15,15,15)" stroke="rgb(15,15,15)" x1="5499" y1="11213" x2="5499" y2="17122"/>
    <line fill="rgb(15,15,15)" stroke="rgb(15,15,15)" x1="6863" y1="18486" x2="6863" y2="18486"/>
    <path fill="none" stroke="rgb(15,15,15)" d="M 6863,18486 L 6934,18484 7005,18478 7076,18469 7146,18456 7216,18439 7284,18419 7351,18395 7417,18368 7481,18337 7544,18303 7605,18266 7664,18225 7720,18182 7774,18135 7826,18086 7875,18034 7922,17980 7965,17923 8005,17865 8043,17804 8077,17741 8107,17677 8135,17611 8158,17543 8179,17475 8195,17405 8208,17335 8218,17265 8223,17193 8225,17122 Z"/>
    <path fill="none" stroke="rgb(15,15,15)" d="M 14135,18486 L 14206,18484 14277,18479 14348,18469 14418,18456 14488,18440 14556,18419 14623,18395 14689,18368 14754,18337 14817,18303 14877,18266 14936,18225 14993,18182 15047,18136 15099,18086 15148,18035 15194,17980 15238,17924 15278,17865 15315,17804 15349,17741 15380,17677 15407,17611 15431,17543 15452,17475 15468,17406 15481,17335 15491,17265 15496,17193 15498,17122 Z"/>
    <path fill="none" stroke="rgb(15,15,15)" d="M 5499,17122 L 5501,17191 5506,17260 5515,17329 5527,17397 5543,17464 5562,17531 5584,17596 5610,17660 5638,17723 5670,17784 5705,17844 5744,17902 5784,17957 5828,18011 5874,18062 5923,18111 5975,18157 6028,18201 6084,18242 6142,18280 6201,18315 6262,18347 6325,18376 6389,18401 6455,18424 6521,18443 6588,18458 6656,18470 6725,18479 6794,18484 6863,18486 Z"/>
    <line fill="rgb(15,15,15)" stroke="rgb(15,15,15)" x1="15499" y1="17122" x2="15499" y2="11213"/>
    <line fill="rgb(15,15,15)" stroke="rgb(15,15,15)" x1="8226" y1="13940" x2="8226" y2="17122"/>
    <path fill="none" stroke="rgb(15,15,15)" d="M 9135,13031 L 9089,13032 9043,13036 8997,13041 8952,13050 8907,13060 8863,13073 8819,13088 8777,13105 8735,13124 8694,13145 8654,13169 8616,13194 8579,13221 8543,13250 8509,13281 8476,13314 8445,13348 8416,13384 8389,13421 8364,13459 8340,13499 8319,13540 8300,13582 8283,13624 8268,13668 8255,13712 8245,13757 8236,13802 8231,13848 8227,13894 8226,13940 Z"/>
    <line fill="rgb(15,15,15)" stroke="rgb(15,15,15)" x1="12772" y1="13940" x2="12772" y2="17122"/>
    <path fill="none" stroke="rgb(15,15,15)" d="M 12772,13940 L 12771,13892 12767,13845 12761,13798 12752,13751 12741,13705 12728,13659 12712,13614 12693,13570 12673,13527 12650,13486 12625,13445 12598,13406 12569,13368 12539,13332 12506,13297 12471,13264 12435,13234 12397,13205 12358,13178 12318,13153 12276,13130 12233,13110 12189,13091 12144,13075 12098,13062 12052,13051 12005,13042 11958,13036 11911,13032 11863,13031 Z"/>
    <line fill="rgb(15,15,15)" stroke="rgb(15,15,15)" x1="11863" y1="13031" x2="9135" y2="13031"/>
    <line fill="rgb(15,15,15)" stroke="rgb(15,15,15)" x1="14135" y1="18486" x2="14135" y2="18486"/>
    <path fill="none" stroke="rgb(15,15,15)" d="M 12772,17122 L 12774,17191 12779,17260 12788,17329 12800,17397 12816,17464 12835,17530 12857,17596 12882,17660 12911,17723 12943,17784 12978,17844 13016,17901 13057,17957 13101,18010 13147,18062 13196,18111 13247,18157 13301,18201 13356,18242 13414,18280 13474,18315 13535,18347 13597,18375 13662,18401 13727,18423 13793,18442 13861,18458 13929,18470 13997,18479 14066,18484 14135,18486 Z"/>
    <line fill="rgb(15,15,15)" stroke="rgb(15,15,15)" x1="6863" y1="18486" x2="14135" y2="18486"/>
   </g>
  </g>
 </g>
</svg>