<?xml version="1.0" encoding="UTF-8"?>
<!DOCTYPE svg PUBLIC "-//W3C//DTD SVG 1.1//EN" "http://www.w3.org/Graphics/SVG/1.1/DTD/svg11.dtd">
<svg version="1.2" width="100.01mm" height="43.34mm" viewBox="5499 12683 10001 4334" preserveAspectRatio="xMidYMid" fill-rule="evenodd" stroke-width="28.222" stroke-linejoin="round" xmlns="http://www.w3.org/2000/svg" xmlns:ooo="http://xml.openoffice.org/svg/export" xmlns:xlink="http://www.w3.org/1999/xlink" xmlns:presentation="http://sun.com/xmlns/staroffice/presentation" xmlns:smil="http://www.w3.org/2001/SMIL20/" xmlns:anim="urn:oasis:names:tc:opendocument:xmlns:animation:1.0" xml:space="preserve">
 <defs class="EmbeddedBulletChars">
  <g id="bullet-char-template-57356" transform="scale(0.00048828125,-0.00048828125)">
   <path d="M 580,1141 L 1163,571 580,0 -4,571 580,1141 Z"/>
  </g>
  <g id="bullet-char-template-57354" transform="scale(0.00048828125,-0.00048828125)">
   <path d="M 8,1128 L 1137,1128 1137,0 8,0 8,1128 Z"/>
  </g>
  <g id="bullet-char-template-10146" transform="scale(0.00048828125,-0.00048828125)">
   <path d="M 174,0 L 602,739 174,1481 1456,739 174,0 Z M 1358,739 L 309,1346 659,739 1358,739 Z"/>
  </g>
  <g id="bullet-char-template-10132" transform="scale(0.00048828125,-0.00048828125)">
   <path d="M 2015,739 L 1276,0 717,0 1260,543 174,543 174,936 1260,936 717,1481 1274,1481 2015,739 Z"/>
  </g>
  <g id="bullet-char-template-10007" transform="scale(0.00048828125,-0.00048828125)">
   <path d="M 0,-2 C -7,14 -16,27 -25,37 L 356,567 C 262,823 215,952 215,954 215,979 228,992 255,992 264,992 276,990 289,987 310,991 331,999 354,1012 L 381,999 492,748 772,1049 836,1024 860,1049 C 881,1039 901,1025 922,1006 886,937 835,863 770,784 769,783 710,716 594,584 L 774,223 C 774,196 753,168 711,139 L 727,119 C 717,90 699,76 672,76 641,76 570,178 457,381 L 164,-76 C 142,-110 111,-127 72,-127 30,-127 9,-110 8,-76 1,-67 -2,-52 -2,-32 -2,-23 -1,-13 0,-2 Z"/>
  </g>
  <g id="bullet-char-template-10004" transform="scale(0.00048828125,-0.00048828125)">
   <path d="M 285,-33 C 182,-33 111,30 74,156 52,228 41,333 41,471 41,549 55,616 82,672 116,743 169,778 240,778 293,778 328,747 346,684 L 369,508 C 377,444 397,411 428,410 L 1163,1116 C 1174,1127 1196,1133 1229,1133 1271,1133 1292,1118 1292,1087 L 1292,965 C 1292,929 1282,901 1262,881 L 442,47 C 390,-6 338,-33 285,-33 Z"/>
  </g>
  <g id="bullet-char-template-9679" transform="scale(0.00048828125,-0.00048828125)">
   <path d="M 813,0 C 632,0 489,54 383,161 276,268 223,411 223,592 223,773 276,916 383,1023 489,1130 632,1184 813,1184 992,1184 1136,1130 1245,1023 1353,916 1407,772 1407,592 1407,412 1353,268 1245,161 1136,54 992,0 813,0 Z"/>
  </g>
  <g id="bullet-char-template-8226" transform="scale(0.00048828125,-0.00048828125)">
   <path d="M 346,457 C 273,457 209,483 155,535 101,586 74,649 74,723 74,796 101,859 155,911 209,963 273,989 346,989 419,989 480,963 531,910 582,859 608,796 608,723 608,648 583,586 532,535 482,483 420,457 346,457 Z"/>
  </g>
  <g id="bullet-char-template-8211" transform="scale(0.00048828125,-0.00048828125)">
   <path d="M -4,459 L 1135,459 1135,606 -4,606 -4,459 Z"/>
  </g>
  <g id="bullet-char-template-61548" transform="scale(0.00048828125,-0.00048828125)">
   <path d="M 173,740 C 173,903 231,1043 346,1159 462,1274 601,1332 765,1332 928,1332 1067,1274 1183,1159 1299,1043 1357,903 1357,740 1357,577 1299,437 1183,322 1067,206 928,148 765,148 601,148 462,206 346,322 231,437 173,577 173,740 Z"/>
  </g>
 </defs>
 <g class="Page">
  <g class="Graphic">
   <g id="id3">
    <rect class="BoundingBox" stroke="none" fill="none" x="5499" y="12683" width="10001" height="4334"/>
    <line fill="rgb(15,15,15)" stroke="rgb(15,15,15)" x1="5499" y1="12683" x2="15499" y2="12683"/>
    <line fill="rgb(15,15,15)" stroke="rgb(15,15,15)" x1="6666" y1="13350" x2="14332" y2="13350"/>
    <line fill="rgb(15,15,15)" stroke="rgb(15,15,15)" x1="5499" y1="12683" x2="5499" y2="16750"/>
    <line fill="rgb(15,15,15)" stroke="rgb(15,15,15)" x1="6166" y1="13850" x2="6166" y2="16750"/>
    <path fill="none" stroke="rgb(15,15,15)" d="M 6666,13350 L 6641,13351 6615,13353 6590,13356 6565,13360 6541,13366 6516,13373 6492,13381 6469,13391 6446,13401 6423,13413 6402,13426 6380,13440 6360,13455 6340,13471 6322,13488 6304,13506 6287,13524 6271,13544 6256,13564 6242,13586 6229,13607 6217,13630 6207,13653 6197,13676 6189,13700 6182,13725 6176,13749 6172,13774 6169,13799 6167,13825 6166,13850 Z"/>
    <line fill="rgb(15,15,15)" stroke="rgb(15,15,15)" x1="9066" y1="13350" x2="9066" y2="16750"/>
    <line fill="rgb(15,15,15)" stroke="rgb(15,15,15)" x1="11932" y1="13350" x2="11932" y2="16750"/>
    <line fill="rgb(15,15,15)" stroke="rgb(15,15,15)" x1="14832" y1="13850" x2="14832" y2="16750"/>
    <path fill="none" stroke="rgb(15,15,15)" d="M 14832,13850 L 14831,13824 14829,13798 14826,13772 14821,13746 14815,13721 14808,13695 14799,13671 14789,13647 14778,13623 14765,13600 14751,13578 14737,13556 14721,13535 14704,13515 14686,13496 14667,13478 14647,13461 14626,13445 14604,13431 14582,13417 14559,13404 14535,13393 14511,13383 14487,13374 14461,13367 14436,13361 14410,13356 14384,13353 14358,13351 14332,13350 Z"/>
    <line fill="rgb(15,15,15)" stroke="rgb(15,15,15)" x1="15499" y1="12683" x2="15499" y2="16750"/>
    <line fill="rgb(15,15,15)" stroke="rgb(15,15,15)" x1="5766" y1="17016" x2="5899" y2="17016"/>
    <path fill="none" stroke="rgb(15,15,15)" d="M 5899,17015 L 5913,17015 5927,17014 5941,17012 5954,17009 5968,17006 5981,17002 5994,16997 6007,16992 6020,16986 6032,16980 6044,16972 6056,16964 6067,16956 6077,16947 6087,16937 6097,16927 6106,16917 6115,16906 6123,16894 6130,16883 6137,16870 6143,16858 6148,16845 6153,16832 6157,16819 6160,16805 6163,16792 6164,16778 6166,16764 6166,16750 Z"/>
    <path fill="none" stroke="rgb(15,15,15)" d="M 15232,17015 L 15246,17015 15260,17014 15274,17012 15287,17009 15301,17006 15314,17002 15327,16997 15340,16992 15352,16986 15365,16980 15377,16972 15388,16964 15399,16956 15410,16947 15420,16937 15429,16927 15438,16917 15447,16906 15455,16894 15462,16883 15469,16870 15475,16858 15480,16845 15485,16832 15489,16819 15492,16805 15495,16791 15496,16778 15498,16764 15498,16750 Z"/>
    <path fill="none" stroke="rgb(15,15,15)" d="M 5499,16750 L 5499,16764 5501,16778 5502,16792 5505,16805 5508,16819 5512,16832 5517,16845 5522,16858 5528,16871 5535,16883 5542,16895 5550,16906 5559,16917 5568,16928 5578,16938 5588,16947 5598,16956 5609,16965 5621,16973 5633,16980 5645,16986 5658,16992 5671,16998 5684,17002 5697,17006 5711,17009 5724,17012 5738,17014 5752,17015 5766,17015 Z"/>
    <line fill="rgb(15,15,15)" stroke="rgb(15,15,15)" x1="6432" y1="17016" x2="8799" y2="17016"/>
    <path fill="none" stroke="rgb(15,15,15)" d="M 6166,16750 L 6166,16764 6168,16778 6169,16792 6172,16805 6175,16819 6179,16832 6184,16845 6189,16858 6195,16870 6202,16883 6209,16894 6217,16906 6226,16917 6235,16927 6244,16937 6254,16947 6265,16956 6276,16964 6287,16972 6299,16980 6312,16986 6324,16992 6337,16997 6350,17002 6363,17006 6377,17009 6390,17012 6404,17014 6418,17015 6432,17015 Z"/>
    <path fill="none" stroke="rgb(15,15,15)" d="M 8799,17015 L 8813,17015 8827,17014 8841,17012 8854,17009 8868,17006 8881,17002 8894,16997 8907,16992 8920,16986 8932,16980 8944,16972 8956,16964 8967,16956 8977,16947 8987,16937 8997,16927 9006,16917 9015,16906 9023,16894 9030,16883 9037,16870 9043,16858 9048,16845 9053,16832 9057,16819 9060,16805 9063,16792 9064,16778 9066,16764 9066,16750 Z"/>
    <line fill="rgb(15,15,15)" stroke="rgb(15,15,15)" x1="9332" y1="17016" x2="11666" y2="17016"/>
    <path fill="none" stroke="rgb(15,15,15)" d="M 11666,17015 L 11680,17015 11694,17013 11707,17012 11721,17009 11734,17006 11748,17002 11761,16997 11774,16992 11786,16986 11798,16979 11810,16972 11822,16964 11833,16956 11843,16947 11853,16937 11863,16927 11872,16917 11880,16906 11888,16894 11895,16882 11902,16870 11908,16858 11913,16845 11918,16832 11922,16818 11925,16805 11928,16791 11929,16778 11931,16764 11931,16750 Z"/>
    <path fill="none" stroke="rgb(15,15,15)" d="M 9066,16750 L 9066,16764 9068,16778 9069,16792 9072,16805 9075,16819 9079,16832 9084,16845 9089,16858 9095,16870 9102,16883 9109,16894 9117,16906 9126,16917 9135,16927 9144,16937 9154,16947 9165,16956 9176,16964 9187,16972 9199,16980 9212,16986 9224,16992 9237,16997 9250,17002 9263,17006 9277,17009 9290,17012 9304,17014 9318,17015 9332,17015 Z"/>
    <line fill="rgb(15,15,15)" stroke="rgb(15,15,15)" x1="15099" y1="17016" x2="15232" y2="17016"/>
    <path fill="none" stroke="rgb(15,15,15)" d="M 14832,16750 L 14832,16764 14834,16778 14835,16792 14838,16805 14841,16819 14845,16832 14850,16845 14855,16858 14861,16870 14868,16883 14875,16894 14883,16906 14892,16917 14901,16927 14911,16937 14921,16947 14931,16956 14942,16964 14954,16972 14966,16980 14978,16986 14991,16992 15004,16997 15017,17002 15030,17006 15044,17009 15057,17012 15071,17014 15085,17015 15099,17015 Z"/>
    <path fill="none" stroke="rgb(15,15,15)" d="M 11932,16750 L 11932,16764 11934,16778 11935,16792 11938,16805 11941,16819 11945,16832 11950,16845 11955,16858 11961,16870 11968,16883 11975,16894 11983,16906 11992,16917 12001,16927 12011,16937 12021,16947 12031,16956 12042,16964 12054,16972 12066,16980 12078,16986 12091,16992 12104,16997 12117,17002 12130,17006 12144,17009 12157,17012 12171,17014 12185,17015 12199,17015 Z"/>
    <line fill="rgb(15,15,15)" stroke="rgb(15,15,15)" x1="12199" y1="17016" x2="14566" y2="17016"/>
    <path fill="none" stroke="rgb(15,15,15)" d="M 14566,17015 L 14580,17015 14594,17013 14607,17012 14621,17009 14634,17006 14648,17002 14661,16997 14674,16992 14686,16986 14698,16979 14710,16972 14722,16964 14733,16956 14743,16947 14753,16937 14763,16927 14772,16917 14780,16906 14788,16894 14795,16882 14802,16870 14808,16858 14813,16845 14818,16832 14822,16818 14825,16805 14828,16791 14829,16778 14831,16764 14831,16750 Z"/>
   </g>
  </g>
 </g>
</svg>